<svg width="178" height="110" fill="none" xmlns="http://www.w3.org/2000/svg"><path d="M91.202 55.26c0 10.56-1.98 19.98-5.94 28.26-3.96 8.16-9.36 14.58-16.2 19.26-6.84 4.68-14.64 7.02-23.4 7.02-8.76 0-16.56-2.34-23.4-7.02s-12.24-11.1-16.2-19.26c-3.96-8.28-5.94-17.7-5.94-28.26 0-10.56 1.98-19.92 5.94-28.08 3.96-8.28 9.36-14.76 16.2-19.44 6.84-4.8 14.64-7.2 23.4-7.2 8.76 0 16.56 2.4 23.4 7.2 6.84 4.68 12.24 11.16 16.2 19.44 3.96 8.16 5.94 17.52 5.94 28.08zm-16.02 0c0-7.92-1.26-14.88-3.78-20.88-2.52-6-6-10.68-10.44-14.04-4.44-3.36-9.54-5.04-15.3-5.04-5.88 0-11.04 1.68-15.48 5.04-4.44 3.36-7.92 8.04-10.44 14.04-2.52 6-3.78 12.96-3.78 20.88 0 7.92 1.26 14.88 3.78 20.88 2.52 5.88 6 10.5 10.44 13.86 4.44 3.36 9.6 5.04 15.48 5.04 5.76 0 10.86-1.68 15.3-5.04 4.44-3.36 7.92-7.98 10.44-13.86 2.52-6 3.78-12.96 3.78-20.88zM177.65 93.6V108h-64.62V93.6h25.56V23.4c-1.32 1.8-3.72 3.84-7.2 6.12-3.48 2.16-7.26 4.02-11.34 5.58-4.08 1.56-7.68 2.34-10.8 2.34V22.32c2.64 0 5.52-.72 8.64-2.16 3.24-1.56 6.36-3.36 9.36-5.4 3-2.04 5.52-3.96 7.56-5.76 2.16-1.8 3.42-3.06 3.78-3.78h16.2V93.6h22.86z" fill="#55A630" fill-opacity=".25"/></svg>