<svg width="189" height="110" fill="none" xmlns="http://www.w3.org/2000/svg"><path d="M91.202 55.26c0 10.56-1.98 19.98-5.94 28.26-3.96 8.16-9.36 14.58-16.2 19.26-6.84 4.68-14.64 7.02-23.4 7.02-8.76 0-16.56-2.34-23.4-7.02s-12.24-11.1-16.2-19.26c-3.96-8.28-5.94-17.7-5.94-28.26 0-10.56 1.98-19.92 5.94-28.08 3.96-8.28 9.36-14.76 16.2-19.44 6.84-4.8 14.64-7.2 23.4-7.2 8.76 0 16.56 2.4 23.4 7.2 6.84 4.68 12.24 11.16 16.2 19.44 3.96 8.16 5.94 17.52 5.94 28.08zm-16.02 0c0-7.92-1.26-14.88-3.78-20.88-2.52-6-6-10.68-10.44-14.04-4.44-3.36-9.54-5.04-15.3-5.04-5.88 0-11.04 1.68-15.48 5.04-4.44 3.36-7.92 8.04-10.44 14.04-2.52 6-3.78 12.96-3.78 20.88 0 7.92 1.26 14.88 3.78 20.88 2.52 5.88 6 10.5 10.44 13.86 4.44 3.36 9.6 5.04 15.48 5.04 5.76 0 10.86-1.68 15.3-5.04 4.44-3.36 7.92-7.98 10.44-13.86 2.52-6 3.78-12.96 3.78-20.88zM108.71 108c0-6.48.72-12.36 2.16-17.64 1.56-5.4 4.44-10.5 8.64-15.3 4.32-4.8 10.5-9.48 18.54-14.04 4.8-2.64 9.6-5.16 14.4-7.56 4.92-2.52 9-5.28 12.24-8.28 3.36-3.12 5.04-6.78 5.04-10.98s-1.86-8.04-5.58-11.52c-3.6-3.48-8.88-5.22-15.84-5.22-4.68 0-8.88.84-12.6 2.52-3.72 1.56-6.9 3.48-9.54 5.76-2.52 2.16-4.56 4.14-6.12 5.94l-9.9-11.16c1.32-1.44 3.78-3.48 7.38-6.12 3.6-2.76 8.22-5.28 13.86-7.56 5.64-2.28 12.18-3.42 19.62-3.42 7.44 0 13.8 1.32 19.08 3.96 5.4 2.52 9.54 6 12.42 10.44 2.88 4.32 4.32 9.18 4.32 14.58 0 4.68-1.02 8.76-3.06 12.24-1.92 3.48-4.44 6.54-7.56 9.18-3 2.64-6.18 4.92-9.54 6.84-3.24 1.8-6.18 3.36-8.82 4.68-7.2 3.6-13.02 6.78-17.46 9.54-4.44 2.64-7.8 5.4-10.08 8.28-2.28 2.88-3.96 6.36-5.04 10.44h63.54V108h-80.1z" fill="#fff" fill-opacity=".3"/></svg>