<svg width="191" height="135" fill="none" xmlns="http://www.w3.org/2000/svg"><path d="M91.23 55.26c0 10.56-1.98 19.98-5.94 28.26-3.96 8.16-9.36 14.58-16.2 19.26-6.84 4.68-14.64 7.02-23.4 7.02-8.76 0-16.56-2.34-23.4-7.02s-12.24-11.1-16.2-19.26C2.13 75.24.15 65.82.15 55.26c0-10.56 1.98-19.92 5.94-28.08 3.96-8.28 9.36-14.76 16.2-19.44 6.84-4.8 14.64-7.2 23.4-7.2 8.76 0 16.56 2.4 23.4 7.2 6.84 4.68 12.24 11.16 16.2 19.44 3.96 8.16 5.94 17.52 5.94 28.08zm-16.02 0c0-7.92-1.26-14.88-3.78-20.88-2.52-6-6-10.68-10.44-14.04-4.44-3.36-9.54-5.04-15.3-5.04-5.88 0-11.04 1.68-15.48 5.04-4.44 3.36-7.92 8.04-10.44 14.04-2.52 6-3.78 12.96-3.78 20.88 0 7.92 1.26 14.88 3.78 20.88 2.52 5.88 6 10.5 10.44 13.86 4.44 3.36 9.6 5.04 15.48 5.04 5.76 0 10.86-1.68 15.3-5.04 4.44-3.36 7.92-7.98 10.44-13.86 2.52-6 3.78-12.96 3.78-20.88zm90.227 10.26c7.68 1.32 13.74 4.86 18.18 10.62 4.56 5.76 6.84 12.9 6.84 21.42 0 7.32-1.8 13.74-5.4 19.26-3.48 5.64-8.46 9.96-14.94 12.96-6.48 3.12-14.04 4.68-22.68 4.68-9.12 0-17.16-1.74-24.12-5.22-6.84-3.36-12.18-8.16-16.02-14.4l10.62-10.62c2.76 4.8 6.48 8.64 11.16 11.52 4.8 2.88 10.92 4.32 18.36 4.32 8.28 0 14.76-1.92 19.44-5.76 4.8-3.72 7.2-9.3 7.2-16.74 0-7.56-2.58-13.56-7.74-18-5.04-4.56-12.42-6.84-22.14-6.84h-4.68V59.4h5.04c8.64 0 15.24-2.1 19.8-6.3 4.68-4.2 7.02-9.42 7.02-15.66 0-6.36-2.22-11.1-6.66-14.22-4.44-3.12-10.02-4.68-16.74-4.68-6.6 0-12.42 1.44-17.46 4.32-4.92 2.76-8.76 6.66-11.52 11.7l-9.72-10.08c3.12-6 8.34-10.86 15.66-14.58 7.44-3.72 15.66-5.58 24.66-5.58 7.56 0 14.22 1.32 19.98 3.96 5.88 2.64 10.44 6.36 13.68 11.16s4.86 10.44 4.86 16.92c0 7.08-2.04 13.44-6.12 19.08-3.96 5.52-9.48 8.88-16.56 10.08z" fill="#55A630" fill-opacity=".25"/></svg>