<svg height="500" id="svg1" width="1000" xmlns="http://www.w3.org/2000/svg"><g id="g578" transform="scale(16.66667)" font-size="12" stroke-width="1pt"><path id="rect124" fill="#006" d="M0 0h60v30H0z"/><g id="g584"><path d="M0 0v3.354L53.292 30H60v-3.354L6.708 0H0zm60 0v3.354L6.708 30H0v-3.354L53.292 0H60z" id="path146" fill="#fff"/><path d="M25 0v30h10V0H25zM0 10v10h60V10H0z" id="path136" fill="#fff"/><path d="M0 12v6h60v-6H0zM27 0v30h6V0h-6z" id="path141" fill="#c00"/><path d="M0 30l20-10h4.472l-20 10H0zM0 0l20 10h-4.472L0 2.236V0zm35.528 10l20-10H60L40 10h-4.472zM60 30L40 20h4.472L60 27.764V30z" id="path150" fill="#c00"/></g></g></svg>