<svg width="33" height="33" fill="none" xmlns="http://www.w3.org/2000/svg"><g clip-path="url(#clip0_10_3296)" fill="#55A630"><path d="M24.339.042L9.663.016C4.887.006.994 3.886.985 8.662L.96 23.338c-.009 4.776 3.87 8.669 8.646 8.677l14.676.027c4.777.008 8.67-3.87 8.678-8.646l.026-14.676c.009-4.777-3.87-8.67-8.646-8.678zm-7.383 24.736c-4.824-.008-8.742-3.94-8.734-8.765.01-4.825 3.941-8.743 8.766-8.734 4.825.009 8.742 3.94 8.734 8.765-.009 4.825-3.941 8.743-8.766 8.734zm8.987-15.42a2.588 2.588 0 01-2.58-2.59 2.588 2.588 0 012.59-2.58 2.589 2.589 0 012.58 2.59 2.588 2.588 0 01-2.59 2.58z"/><path d="M16.984 9.029a7.008 7.008 0 00-7.012 6.987 7.008 7.008 0 006.987 7.013 7.008 7.008 0 007.013-6.988 7.008 7.008 0 00-6.988-7.012zm8.506-2.985a.5.5 0 100 1.001.5.5 0 000-1z"/></g><defs><clipPath id="clip0_10_3296"><path fill="#fff" transform="rotate(.103 .534 555.569)" d="M0 0h32v32H0z"/></clipPath></defs></svg>