<svg width="31" height="30" fill="none" xmlns="http://www.w3.org/2000/svg"><g clip-path="url(#clip0_255_5329)" fill="#55A630"><path d="M21.97.141L8.326.116C3.887.108.268 3.714.26 8.154L.236 21.797c-.008 4.44 3.597 8.058 8.037 8.066l13.643.025c4.44.008 8.058-3.598 8.066-8.038l.025-13.642c.008-4.44-3.598-8.059-8.038-8.067zm-6.863 22.995c-4.485-.008-8.127-3.664-8.12-8.149.009-4.485 3.664-8.127 8.149-8.119 4.485.009 8.127 3.664 8.119 8.149-.008 4.485-3.663 8.127-8.148 8.119zM23.46 8.802a2.406 2.406 0 01-2.4-2.408 2.406 2.406 0 012.408-2.4 2.406 2.406 0 012.4 2.409 2.406 2.406 0 01-2.408 2.399z"/><path d="M15.134 8.628a6.382 6.382 0 00-6.386 6.364 6.382 6.382 0 006.363 6.386 6.382 6.382 0 006.386-6.364 6.382 6.382 0 00-6.363-6.386zm8.503-2.818a.71.71 0 100 1.419.71.71 0 000-1.419z"/></g><defs><clipPath id="clip0_255_5329"><path fill="#fff" transform="rotate(.103 -56.47 152.628)" d="M0 0h29.747v29.747H0z"/></clipPath></defs></svg>