<svg width="29" height="28" fill="none" xmlns="http://www.w3.org/2000/svg"><path d="M28.446 22.265l-3.104-2.07-2.76-1.84a1.222 1.222 0 00-1.641.267l-1.708 2.195a1.216 1.216 0 01-1.552.322c-1.159-.644-2.529-1.251-5.552-4.278-3.023-3.027-3.634-4.393-4.278-5.552a1.216 1.216 0 01.322-1.552l2.195-1.708c.505-.393.62-1.108.267-1.64L8.852 3.733 6.726.544A1.222 1.222 0 005.08.174L2.628 1.645a2.996 2.996 0 00-1.36 1.76C.598 5.85.462 11.244 9.105 19.887c8.642 8.643 14.035 8.507 16.48 7.837a2.996 2.996 0 001.76-1.36l1.471-2.453a1.222 1.222 0 00-.37-1.645zM16.92 4.345a8.216 8.216 0 018.206 8.207.483.483 0 00.966 0 9.182 9.182 0 00-9.172-9.173.483.483 0 000 .966z" fill="#55A630"/><path d="M16.92 7.24a5.316 5.316 0 015.311 5.311.483.483 0 10.966 0 6.283 6.283 0 00-6.276-6.276.483.483 0 100 .966z" fill="#55A630"/><path d="M16.92 10.138a2.417 2.417 0 012.413 2.414.483.483 0 00.966 0 3.383 3.383 0 00-3.38-3.38.483.483 0 000 .966z" fill="#55A630"/></svg>