<svg width="23" height="23" fill="none" xmlns="http://www.w3.org/2000/svg"><path d="M22.553 18.289l-2.55-1.7-2.267-1.511a1.004 1.004 0 00-1.348.219L14.985 17.1a.999.999 0 01-1.275.264c-.952-.529-2.077-1.027-4.56-3.514-2.483-2.486-2.985-3.608-3.514-4.56A.999.999 0 015.9 8.015l1.803-1.403c.415-.323.51-.91.22-1.348L6.457 3.067 4.71.447A1.004 1.004 0 003.36.143L1.345 1.351A2.46 2.46 0 00.228 2.798c-.55 2.008-.662 6.438 6.437 13.537 7.1 7.1 11.53 6.988 13.537 6.437a2.46 2.46 0 001.447-1.117l1.208-2.015a1.004 1.004 0 00-.304-1.351zM13.085 3.57a6.749 6.749 0 016.741 6.74.396.396 0 10.793 0 7.543 7.543 0 00-7.534-7.534.397.397 0 000 .793z" fill="#55A630"/><path d="M13.085 5.948a4.367 4.367 0 014.362 4.362.397.397 0 00.793 0 5.161 5.161 0 00-5.155-5.155.397.397 0 000 .793z" fill="#55A630"/><path d="M13.085 8.328a1.985 1.985 0 011.983 1.983.397.397 0 00.793 0 2.779 2.779 0 00-2.776-2.776.397.397 0 000 .793z" fill="#55A630"/></svg>