<svg width="55" height="56" fill="none" xmlns="http://www.w3.org/2000/svg"><path d="M55 28.497a27.5 27.5 0 10-55 0 27.5 27.5 0 0055 0z" fill="#B7ECB1"/><path d="M11.711 22.664h1.494L8.772 33.195h-.34l-4.519-10.53h1.51l3.153 7.364 3.135-7.365zm5.871 6.335v2.944c0 .236.08.354.24.354a1.65 1.65 0 00.774-.37v.835a4.573 4.573 0 01-.747.407 1.63 1.63 0 01-.588.11c-.586 0-.931-.23-1.037-.69a2.979 2.979 0 01-1.855.674 1.638 1.638 0 01-1.68-1.673 1.676 1.676 0 01.468-1.167c.372-.375.832-.65 1.338-.803l1.748-.603v-.366c0-.83-.415-1.248-1.244-1.248-.748 0-1.474.386-2.177 1.157v-1.513c.536-.623 1.299-.935 2.289-.937a2.653 2.653 0 011.788.59c.331.292.555.688.634 1.123.042.393.058.787.049 1.181V29zm-1.339 2.792v-2.05l-.915.353a3.088 3.088 0 00-.988.559 1.014 1.014 0 000 1.4.967.967 0 00.71.268 1.71 1.71 0 001.207-.536m4.945-9.121h-1.365v10.489h1.365V22.664zm10.501 0h1.405V33.15h-1.51v-8.16l-3.225 4.053h-.276l-3.263-4.052v8.159h-1.502V22.664h1.421l3.486 4.307 3.464-4.307zm7.817 6.334v2.944c0 .236.077.354.238.354.286-.053.553-.18.774-.37v.836a4.584 4.584 0 01-.747.407 1.62 1.62 0 01-.589.11c-.585 0-.93-.231-1.036-.691a2.98 2.98 0 01-1.855.674 1.63 1.63 0 01-1.2-.476 1.606 1.606 0 01-.481-1.197c0-.435.167-.853.468-1.167.373-.375.833-.65 1.339-.803l1.75-.602v-.367c0-.83-.417-1.248-1.247-1.248-.748 0-1.473.386-2.176 1.157v-1.513c.535-.622 1.298-.935 2.288-.936a2.647 2.647 0 011.794.583c.164.142.301.311.407.5.114.192.191.404.227.624.043.392.06.787.051 1.18h-.005zm-1.333 2.787v-2.051l-.918.353a3.1 3.1 0 00-.986.56 1.012 1.012 0 00-.016 1.4.973.973 0 00.71.268 1.72 1.72 0 001.21-.536m5.016-5.535v1.584l.075-.12c.662-1.07 1.323-1.606 1.983-1.606.514 0 1.05.26 1.606.779l-.72 1.202c-.476-.45-.917-.675-1.322-.675a1.416 1.416 0 00-1.146.63 2.39 2.39 0 00-.484 1.493v3.62H41.82v-6.907h1.382zm5.332-2.904a.802.802 0 01.579.232.77.77 0 01.238.57.819.819 0 01-.803.803.754.754 0 01-.557-.243.786.786 0 01-.177-.872.777.777 0 01.177-.255.757.757 0 01.557-.244l-.014.008zm-.677 2.904h1.368v6.906h-1.368v-6.906z" fill="#91BD9D"/><path d="M12.008 22.396H13.5L9.068 32.927h-.34l-4.521-10.53h1.512l3.154 7.363 3.135-7.364zm5.869 6.334v2.945c0 .236.08.354.24.354a1.66 1.66 0 00.774-.37v.835a4.58 4.58 0 01-.747.407c-.188.073-.389.11-.591.11-.584 0-.93-.23-1.036-.69a2.966 2.966 0 01-1.853.674 1.635 1.635 0 01-1.68-1.673 1.67 1.67 0 01.468-1.167c.372-.375.832-.65 1.338-.803l1.748-.603v-.366c0-.83-.415-1.248-1.245-1.248-.745 0-1.472.386-2.179 1.157v-1.513c.536-.623 1.3-.935 2.292-.937a2.652 2.652 0 011.788.59c.163.141.3.31.404.5.115.192.193.403.23.623.041.393.058.787.049 1.181v-.005zm-1.339 2.793v-2.05l-.915.353a3.09 3.09 0 00-.988.559 1.009 1.009 0 000 1.4.967.967 0 00.71.268 1.713 1.713 0 001.207-.536m4.942-9.121H20.13v10.488h1.365V22.396zm10.504 0H33.4v10.486h-1.507v-8.16l-3.225 4.053h-.279l-3.26-4.052v8.159h-1.502V22.396h1.421l3.486 4.307 3.464-4.307zm7.814 6.334v2.944c0 .235.08.353.241.353a1.65 1.65 0 00.774-.37v.836a4.584 4.584 0 01-.747.407 1.65 1.65 0 01-.589.11c-.585 0-.93-.23-1.036-.691a2.979 2.979 0 01-1.855.674 1.638 1.638 0 01-1.567-1.024 1.605 1.605 0 01-.114-.649c0-.434.167-.853.468-1.167.373-.374.833-.65 1.339-.803l1.748-.602v-.367c0-.83-.415-1.247-1.245-1.247-.746 0-1.471.385-2.176 1.156v-1.512c.535-.623 1.298-.935 2.288-.937a2.653 2.653 0 011.794.583c.329.296.552.69.634 1.125a9.3 9.3 0 01.049 1.18h-.006zm-1.333 2.786v-2.05l-.915.353a3.09 3.09 0 00-.988.56 1.009 1.009 0 00-.014 1.4.966.966 0 00.71.267 1.712 1.712 0 001.207-.535m5.019-5.535v1.585l.075-.12c.66-1.071 1.321-1.607 1.983-1.607.514 0 1.05.26 1.606.78l-.72 1.201c-.474-.45-.915-.674-1.32-.674a1.416 1.416 0 00-1.145.629 2.375 2.375 0 00-.485 1.493v3.62H42.12v-6.907h1.379zm5.33-2.904a.803.803 0 01.578.233.764.764 0 01.241.57.78.78 0 01-.24.57.802.802 0 01-.881.177.755.755 0 01-.252-.18.787.787 0 01-.177-.871.78.78 0 01.177-.255.757.757 0 01.554-.244zm-.674 2.905h1.373v6.906h-1.365l-.008-6.906z" fill="#fff"/></svg>