<svg width="78" height="77" fill="none" xmlns="http://www.w3.org/2000/svg"><path d="M77.094 38.5a38.5 38.5 0 10-76.999 0 38.5 38.5 0 0076.999 0z" fill="#B7ECB1"/><path d="M16.49 30.334h2.091l-6.206 14.743H11.9L5.573 30.334h2.114l4.415 10.31 4.388-10.31zm8.218 8.867v4.123c0 .33.113.494.338.494a2.3 2.3 0 001.083-.517v1.17a6.42 6.42 0 01-1.046.57 2.28 2.28 0 01-.824.153c-.82 0-1.303-.323-1.45-.967a4.17 4.17 0 01-2.598.944 2.293 2.293 0 01-2.193-1.434 2.249 2.249 0 01-.16-.908 2.354 2.354 0 01.655-1.634 4.461 4.461 0 011.874-1.124l2.447-.843v-.514c0-1.162-.58-1.746-1.742-1.746-1.047 0-2.063.54-3.047 1.619v-2.118c.75-.872 1.818-1.309 3.204-1.312a3.713 3.713 0 012.504.825c.464.41.776.965.888 1.574.057.549.08 1.101.067 1.653V39.2zm-1.873 3.91v-2.872l-1.282.495a4.325 4.325 0 00-1.383.783 1.42 1.42 0 000 1.96 1.352 1.352 0 00.993.375 2.39 2.39 0 001.69-.75m6.923-12.768h-1.91v14.683h1.91V30.334zm14.702 0h1.967v14.68h-2.113V33.59l-4.516 5.674h-.386l-4.57-5.674v11.423h-2.1v-14.68h1.99l4.88 6.03 4.849-6.03zm10.944 8.867v4.123c0 .33.109.495.334.495a2.31 2.31 0 001.083-.518v1.17c-.33.222-.68.412-1.046.57a2.268 2.268 0 01-.825.153c-.819 0-1.303-.322-1.45-.967a4.18 4.18 0 01-2.597.945 2.278 2.278 0 01-1.679-.668 2.25 2.25 0 01-.675-1.675 2.354 2.354 0 01.656-1.634 4.458 4.458 0 011.874-1.124l2.451-.843v-.514c0-1.162-.584-1.746-1.746-1.746-1.047 0-2.063.54-3.047 1.619v-2.118c.75-.872 1.817-1.309 3.204-1.311a3.707 3.707 0 012.511.817c.23.198.422.435.57.7.16.269.268.565.318.874.06.548.083 1.1.071 1.652h-.007zm-1.866 3.902v-2.871l-1.286.495a4.34 4.34 0 00-1.379.783 1.417 1.417 0 00-.023 1.96 1.36 1.36 0 00.994.375 2.406 2.406 0 001.694-.75m7.021-7.75v2.218l.105-.168c.927-1.5 1.853-2.249 2.777-2.249.72 0 1.47.364 2.249 1.09L64.7 37.92c-.667-.63-1.284-.945-1.852-.945a1.984 1.984 0 00-1.604.88 3.347 3.347 0 00-.678 2.092v5.067h-1.922v-9.67h1.933zm7.467-4.067a1.125 1.125 0 01.81.326 1.08 1.08 0 01.333.798 1.146 1.146 0 01-1.124 1.124 1.058 1.058 0 01-.78-.34 1.102 1.102 0 01-.337-.795 1.091 1.091 0 01.338-.783 1.057 1.057 0 01.78-.341l-.02.01zm-.948 4.066h1.915v9.67h-1.915v-9.67z" fill="#91BD9D"/><path d="M16.903 29.96h2.091l-6.206 14.743h-.476l-6.33-14.744H8.1l4.415 10.31 4.388-10.31zm8.217 8.867v4.122c0 .33.113.495.338.495.4-.075.773-.253 1.083-.517v1.169a6.41 6.41 0 01-1.046.57 2.3 2.3 0 01-.828.153c-.817 0-1.3-.322-1.45-.967a4.152 4.152 0 01-2.594.945 2.29 2.29 0 01-1.683-.667 2.25 2.25 0 01-.67-1.675 2.354 2.354 0 01.655-1.634 4.461 4.461 0 011.874-1.125l2.448-.843v-.514c0-1.161-.581-1.746-1.743-1.746-1.044 0-2.061.54-3.05 1.62v-2.118c.749-.872 1.818-1.31 3.207-1.312a3.714 3.714 0 012.504.825c.228.198.42.435.566.7.16.269.27.565.322.873.057.55.08 1.102.067 1.653v-.007zm-1.873 3.909v-2.871l-1.282.495a4.323 4.323 0 00-1.383.783 1.413 1.413 0 000 1.96 1.352 1.352 0 00.993.375 2.4 2.4 0 001.69-.75m6.919-12.768h-1.912v14.683h1.912V29.959zm14.706 0h1.965v14.679h-2.11V33.216l-4.516 5.674h-.39l-4.565-5.674v11.423h-2.102v-14.68h1.99l4.88 6.03 4.849-6.03zm10.94 8.866v4.123c0 .33.112.494.337.494.4-.074.774-.252 1.083-.517v1.17a6.41 6.41 0 01-1.046.569 2.284 2.284 0 01-.824.154c-.82 0-1.303-.323-1.45-.967-.734.6-1.65.934-2.598.944a2.293 2.293 0 01-2.193-1.434 2.248 2.248 0 01-.16-.908 2.354 2.354 0 01.656-1.634 4.46 4.46 0 011.873-1.124l2.448-.844v-.513c0-1.162-.581-1.747-1.743-1.747-1.044 0-2.06.54-3.047 1.62v-2.118c.75-.872 1.818-1.31 3.204-1.312a3.713 3.713 0 012.511.817c.46.414.773.967.889 1.574.057.55.08 1.101.067 1.653h-.008zm-1.867 3.901v-2.87l-1.282.494a4.327 4.327 0 00-1.383.784 1.413 1.413 0 00-.018 1.96 1.352 1.352 0 00.993.374 2.4 2.4 0 001.69-.75m7.027-7.749v2.218l.106-.168c.924-1.5 1.85-2.249 2.777-2.249.72 0 1.469.364 2.248 1.09l-1.008 1.683c-.663-.63-1.282-.944-1.847-.944a1.982 1.982 0 00-1.605.88 3.324 3.324 0 00-.678 2.092v5.067h-1.922v-9.67h1.93zm7.462-4.066a1.125 1.125 0 01.81.326 1.068 1.068 0 01.337.798 1.09 1.09 0 01-.338.799 1.122 1.122 0 01-.81.337 1.056 1.056 0 01-.775-.341 1.102 1.102 0 01-.337-.795 1.09 1.09 0 01.337-.783 1.056 1.056 0 01.776-.341zm-.945 4.066h1.923v9.67h-1.91l-.012-9.67z" fill="#fff"/></svg>