<svg width="31" height="30" viewBox="0 0 31 30" fill="none" xmlns="http://www.w3.org/2000/svg">
<path d="M26.643 0.149007L4.33306 0.108811C2.28241 0.105116 0.611741 1.76978 0.608047 3.82043L0.567851 26.1303C0.564156 28.181 2.22882 29.8517 4.27947 29.8554L15.4344 29.8755L15.4528 19.6501L11.7345 19.6434L11.7429 14.9955L15.4612 15.0022L15.4679 11.2839C15.4735 8.20324 17.9748 5.71088 21.0554 5.71643L24.7738 5.72313L24.7654 10.371L22.9062 10.3677C21.88 10.3658 21.0472 10.2677 21.0454 11.2939L21.0387 15.0122L25.6866 15.0206L23.8191 19.6652L21.0303 19.6601L21.0119 29.8855L26.5894 29.8955C28.64 29.8992 30.3107 28.2346 30.3144 26.1839L30.3546 3.87402C30.3583 1.82337 28.6936 0.152702 26.643 0.149007Z" fill="#55A630"/>
</svg>
