<svg width="32" height="32" viewBox="0 0 32 32" fill="none" xmlns="http://www.w3.org/2000/svg">
<path d="M28.1259 0.0488105L4.87597 0.00692062C2.73891 0.00307024 0.997845 1.73787 0.993995 3.87493L0.952105 27.1249C0.948255 29.262 2.68306 31.003 4.82012 31.0069L16.4451 31.0278L16.4643 20.3716L12.5893 20.3646L12.598 15.5209L16.473 15.5278L16.48 11.6528C16.4858 8.44241 19.0925 5.84504 22.303 5.85083L26.178 5.85781L26.1692 10.7016L24.2317 10.6981C23.1622 10.6961 22.2944 10.5938 22.2925 11.6633L22.2855 15.5383L27.1293 15.547L25.183 20.3873L22.2768 20.3821L22.2576 31.0383L28.0701 31.0488C30.2071 31.0526 31.9482 29.3178 31.9521 27.1807L31.9939 3.93079C31.9978 1.79373 30.263 0.0526609 28.1259 0.0488105Z" fill="#55A630"/>
</svg>
