<svg width="31" height="30" viewBox="0 0 31 30" fill="none" xmlns="http://www.w3.org/2000/svg">
<g clip-path="url(#clip0_255_5329)">
<path d="M21.9693 0.141077L8.327 0.116497C3.887 0.108498 0.268394 3.71409 0.260395 8.15409L0.235815 21.7966C0.227816 26.2364 3.83341 29.855 8.27341 29.863L21.9159 29.8876C26.3557 29.8956 29.9743 26.29 29.9823 21.8502L30.0069 8.20769C30.0149 3.76768 26.4093 0.149077 21.9693 0.141077V0.141077ZM15.1067 23.1356C10.6218 23.1275 6.97969 19.4723 6.98777 14.9874C6.99585 10.5024 10.6511 6.86037 15.136 6.86845C19.6209 6.87653 23.263 10.5317 23.2549 15.0167C23.2468 19.5016 19.5916 23.1437 15.1067 23.1356ZM23.4606 8.80162C22.1352 8.79923 21.0592 7.71929 21.0616 6.39391C21.064 5.06854 22.1439 3.99225 23.4693 3.99464C24.7946 3.99703 25.8709 5.0772 25.8685 6.40257C25.8662 7.72795 24.786 8.80401 23.4606 8.80162Z" fill="#55A630"/>
<path d="M15.1339 8.62831C11.6191 8.62197 8.75413 11.4764 8.74779 14.9915C8.74146 18.5063 11.5961 21.3713 15.111 21.3776C18.626 21.3839 21.4907 18.5293 21.4971 15.0144C21.5034 11.4994 18.649 8.63464 15.1339 8.62831Z" fill="#55A630"/>
<path d="M23.6369 5.81011C23.2465 5.80941 22.9281 6.12667 22.9274 6.51713C22.9267 6.90759 23.2439 7.226 23.6343 7.2267C24.025 7.22741 24.3433 6.91039 24.344 6.51968C24.3447 6.12898 24.0275 5.81082 23.6369 5.81011Z" fill="#55A630"/>
</g>
<defs>
<clipPath id="clip0_255_5329">
<rect width="29.7466" height="29.7466" fill="white" transform="translate(0.274902 0.10199) rotate(0.103231)"/>
</clipPath>
</defs>
</svg>
