<svg width="33" height="33" viewBox="0 0 33 33" fill="none" xmlns="http://www.w3.org/2000/svg">
<g clip-path="url(#clip0_10_3296)">
<path d="M24.3388 0.0419871L9.66305 0.0155456C4.8867 0.00693996 0.993976 3.88567 0.98537 8.66202L0.958928 23.338C0.950323 28.1141 4.82905 32.0068 9.6054 32.0154L24.2814 32.0419C29.0575 32.0505 32.9502 28.1718 32.9588 23.3956L32.9853 8.71967C32.9939 3.94332 29.1151 0.0505928 24.3388 0.0419871V0.0419871ZM16.9563 24.7784C12.1316 24.7697 8.21367 20.8376 8.22237 16.0129C8.23106 11.1883 12.1632 7.27029 16.9879 7.27898C21.8125 7.28768 25.7305 11.2198 25.7218 16.0445C25.7131 20.8692 21.781 24.7871 16.9563 24.7784ZM25.9431 9.3586C24.5173 9.35603 23.3597 8.19427 23.3623 6.7685C23.3649 5.34272 24.5266 4.1849 25.9524 4.18747C27.3782 4.19004 28.536 5.35204 28.5334 6.77781C28.5309 8.20359 27.3689 9.36116 25.9431 9.3586Z" fill="#55A630"/>
<path d="M16.9844 9.02873C13.1247 9.02177 9.97872 12.1562 9.97176 16.0161C9.96481 19.8757 13.0995 23.0217 16.9591 23.0287C20.819 23.0357 23.9648 19.901 23.9717 16.0413C23.9787 12.1814 20.8442 9.03568 16.9844 9.02873Z" fill="#55A630"/>
<path d="M25.4901 6.04405C25.2146 6.04356 24.9898 6.26751 24.9893 6.54315C24.9888 6.81879 25.2128 7.04355 25.4883 7.04405C25.7641 7.04455 25.9888 6.82076 25.9893 6.54495C25.9898 6.26914 25.7659 6.04455 25.4901 6.04405Z" fill="#55A630"/>
</g>
<defs>
<clipPath id="clip0_10_3296">
<rect width="32" height="32" fill="white" transform="translate(1.00098 -6.10352e-05) rotate(0.103231)"/>
</clipPath>
</defs>
</svg>
