<svg width="23" height="23" viewBox="0 0 23 23" fill="none" xmlns="http://www.w3.org/2000/svg">
<path d="M22.5527 18.2887L20.003 16.5887L17.7363 15.0779C17.2988 14.7868 16.711 14.8822 16.388 15.2968L14.9854 17.0999C14.6841 17.4911 14.1422 17.6036 13.7101 17.3644C12.7584 16.835 11.633 16.3365 9.14983 13.8502C6.66667 11.3638 6.16503 10.2416 5.63563 9.28987C5.39643 8.85782 5.50886 8.31584 5.90013 8.0146L7.70323 6.61202C8.11772 6.28913 8.21318 5.70124 7.92213 5.26375L6.45769 3.06687L4.71129 0.447238C4.41404 0.00134857 3.81901 -0.132517 3.35947 0.143075L1.34537 1.35137C0.801061 1.67206 0.400946 2.18992 0.227909 2.79757C-0.322872 4.80569 -0.433917 9.23552 6.66546 16.3349C13.7648 23.4343 18.1943 23.3229 20.2024 22.772C20.81 22.599 21.3279 22.1989 21.6486 21.6546L22.8569 19.6405C23.1325 19.1809 22.9986 18.5859 22.5527 18.2887Z" fill="#55A630"/>
<path d="M13.085 3.56945C16.8064 3.57359 19.8222 6.58934 19.8263 10.3108C19.8263 10.5298 20.0038 10.7073 20.2229 10.7073C20.4419 10.7073 20.6194 10.5298 20.6194 10.3108C20.6149 6.15153 17.2443 2.78095 13.085 2.77637C12.8661 2.77637 12.6885 2.9539 12.6885 3.17293C12.6884 3.39188 12.866 3.56945 13.085 3.56945Z" fill="#55A630"/>
<path d="M13.085 5.94792C15.493 5.95075 17.4442 7.90204 17.447 10.3099C17.447 10.5289 17.6246 10.7065 17.8436 10.7065C18.0626 10.7065 18.2402 10.529 18.2402 10.3099C18.2369 7.46419 15.9308 5.15806 13.085 5.15479C12.8661 5.15479 12.6885 5.33231 12.6885 5.55135C12.6885 5.77039 12.866 5.94792 13.085 5.94792Z" fill="#55A630"/>
<path d="M13.085 8.328C14.1795 8.3293 15.0664 9.21623 15.0677 10.3107C15.0677 10.5297 15.2453 10.7073 15.4643 10.7073C15.6833 10.7073 15.8609 10.5298 15.8609 10.3107C15.8591 8.77843 14.6174 7.53666 13.085 7.53491C12.8661 7.53491 12.6885 7.71244 12.6885 7.93148C12.6884 8.15047 12.866 8.328 13.085 8.328Z" fill="#55A630"/>
</svg>
