<svg width="75" height="77" fill="none" xmlns="http://www.w3.org/2000/svg"><path d="M74.391 38.332c0-7.581-2.163-14.992-6.217-21.296-4.053-6.304-9.815-11.217-16.555-14.118A35.601 35.601 0 0030.305.737c-7.156 1.479-13.729 5.13-18.888 10.49-5.16 5.361-8.672 12.191-10.096 19.627A39.727 39.727 0 003.421 53c2.791 7.005 7.52 12.991 13.586 17.203 6.066 4.212 13.199 6.46 20.495 6.46 4.844 0 9.641-.99 14.117-2.917a36.823 36.823 0 0011.968-8.309 38.464 38.464 0 007.997-12.436 39.635 39.635 0 002.807-14.67z" fill="#B7ECB1"/><path d="M16.717 29.828h2.004l-5.947 14.68h-.456l-6.065-14.68h2.029l4.23 10.265 4.205-10.265zm7.873 8.829v4.105c0 .328.108.492.323.492a2.193 2.193 0 001.038-.515v1.165a6.23 6.23 0 01-1.002.567 2.133 2.133 0 01-.794.153c-.783 0-1.246-.321-1.39-.963a3.89 3.89 0 01-2.484.94 2.122 2.122 0 01-.872-.16 2.25 2.25 0 01-1.23-1.269 2.318 2.318 0 01-.154-.903c0-.606.225-1.19.629-1.627a4.246 4.246 0 011.795-1.12l2.345-.839v-.51c0-1.158-.556-1.74-1.67-1.74-1 0-1.974.538-2.923 1.612v-2.108c.719-.868 1.743-1.303 3.074-1.306.87-.04 1.723.252 2.4.821.218.198.401.434.541.698.154.267.26.562.31.87.054.546.076 1.095.064 1.645v-.008zm-1.796 3.892v-2.858l-1.228.492a4.104 4.104 0 00-1.325.78 1.436 1.436 0 00-.378.976c0 .364.135.714.378.976.126.125.276.223.44.287.163.064.337.093.512.086.304-.007.604-.076.881-.205.278-.128.53-.312.738-.541m6.632-12.714h-1.832v14.62h1.832v-14.62zm14.089 0h1.882v14.616h-2.022V33.07l-4.327 5.649h-.373l-4.374-5.65v11.374h-2.014V29.828h1.907l4.675 6.004 4.646-6.004zm10.484 8.83v4.104c0 .329.108.493.324.493a2.177 2.177 0 001.037-.515v1.164a6.031 6.031 0 01-1.001.567c-.252.102-.52.154-.79.153-.786 0-1.249-.32-1.39-.962-.703.598-1.58.93-2.489.94a2.122 2.122 0 01-.872-.16 2.246 2.246 0 01-1.23-1.268 2.315 2.315 0 01-.153-.904 2.392 2.392 0 01.629-1.627 4.244 4.244 0 011.795-1.12l2.345-.839v-.511c0-1.157-.557-1.739-1.67-1.739-1 0-1.974.537-2.92 1.612v-2.108c.719-.868 1.742-1.304 3.071-1.306a3.471 3.471 0 012.406.813c.441.412.74.962.851 1.567.055.547.077 1.097.065 1.646h-.008zm-1.788 3.884v-2.858l-1.228.493a4.103 4.103 0 00-1.325.78 1.442 1.442 0 00-.018 1.951 1.282 1.282 0 00.952.373c.304-.007.603-.076.881-.204a2.3 2.3 0 00.738-.542m6.731-7.717v2.21l.101-.169c.886-1.492 1.773-2.238 2.661-2.238.69 0 1.408.362 2.155 1.085l-.966 1.676c-.636-.627-1.228-.94-1.77-.94-.306.007-.605.09-.872.243a1.93 1.93 0 00-.666.633 3.397 3.397 0 00-.65 2.083v5.044h-1.842v-9.627h1.85zm7.15-4.05a1.042 1.042 0 01.776.325c.104.102.187.225.243.362a1.1 1.1 0 01.08.433 1.122 1.122 0 01-.323.795 1.077 1.077 0 01-.355.25 1.042 1.042 0 01-.42.085.98.98 0 01-.406-.089 1.015 1.015 0 01-.338-.25 1.1 1.1 0 01-.24-.361 1.12 1.12 0 01.24-1.21 1.01 1.01 0 01.338-.25.978.978 0 01.406-.09zm-.904 4.049h1.842v9.627h-1.832l-.01-9.627z" fill="#fff"/></svg>