<svg width="45" height="46" fill="none" xmlns="http://www.w3.org/2000/svg"><path d="M45 23c0-4.549-1.32-8.996-3.792-12.778A22.615 22.615 0 0031.11 1.75a22.046 22.046 0 00-13-1.31A22.353 22.353 0 006.59 6.738 23.163 23.163 0 00.432 18.513a23.475 23.475 0 001.28 13.289A22.899 22.899 0 0010 42.124 22.154 22.154 0 0022.5 46c2.955 0 5.88-.594 8.61-1.75a22.471 22.471 0 007.3-4.986 23.04 23.04 0 004.878-7.462A23.443 23.443 0 0045 23z" fill="#B7ECB1"/><path d="M9.714 18H11l-3.816 9h-.292L3 18h1.302l2.714 6.294L9.714 18zm5.428 5.419v2.463c0 .197.067.296.203.296.242-.044.468-.151.655-.309v.699c-.2.132-.411.246-.632.34-.16.061-.33.092-.5.092-.494 0-.787-.193-.877-.578-.442.36-.995.559-1.568.565a1.398 1.398 0 01-1.017-.4 1.344 1.344 0 01-.405-1c0-.364.141-.714.396-.977a2.701 2.701 0 011.133-.672l1.479-.503v-.307c0-.695-.351-1.044-1.053-1.044-.632 0-1.246.323-1.844.968v-1.266c.453-.521 1.1-.782 1.939-.784a2.262 2.262 0 011.513.493c.138.119.254.26.342.419a1.5 1.5 0 01.195.522c.034.328.048.657.04.987v-.004zm-1.133 2.336v-1.716l-.775.296a2.624 2.624 0 00-.836.468.84.84 0 000 1.171.819.819 0 00.6.224 1.463 1.463 0 001.022-.448M17 18h-1v9h1v-9zm8.852 0H27v9h-1.234v-7.003l-2.64 3.478h-.228l-2.669-3.478V27H19v-9h1.163l2.853 3.697L25.852 18zm6.29 5.42v2.462c0 .198.067.296.203.296A1.4 1.4 0 0033 25.87v.699c-.2.132-.411.246-.632.34a1.39 1.39 0 01-.498.092c-.496 0-.788-.193-.877-.578a2.539 2.539 0 01-1.57.565 1.4 1.4 0 01-1.017-.399 1.343 1.343 0 01-.405-1.001 1.398 1.398 0 01.396-.977 2.701 2.701 0 011.133-.671l1.479-.504v-.307c0-.694-.351-1.044-1.053-1.044-.632 0-1.245.323-1.842.968v-1.265c.453-.522 1.098-.783 1.937-.784a2.256 2.256 0 011.517.488c.279.247.467.577.537.94.035.328.049.658.041.988h-.005zm-1.129 2.33v-1.715l-.774.296a2.62 2.62 0 00-.836.468.84.84 0 00-.011 1.17.819.819 0 00.6.225 1.463 1.463 0 001.021-.448m4.08-4.626v1.35l.06-.103C35.677 21.456 36.2 21 36.726 21c.408 0 .832.221 1.274.663l-.571 1.023c-.376-.383-.726-.574-1.047-.574-.18.004-.357.055-.515.149a1.156 1.156 0 00-.393.387 2.122 2.122 0 00-.385 1.271V27H34v-5.88h1.093zM39.492 19a.394.394 0 01.194.047.51.51 0 01.165.143.67.67 0 01.112.212.8.8 0 01.037.253.811.811 0 01-.038.253.668.668 0 01-.111.212.516.516 0 01-.164.146.375.375 0 01-.382-.002.496.496 0 01-.156-.146.676.676 0 01-.11-.212.82.82 0 010-.5.667.667 0 01.11-.207.496.496 0 01.156-.147.374.374 0 01.188-.052zm-.417 2.368h.85V27h-.845l-.005-5.632z" fill="#fff"/></svg>