<svg width="40" height="42" fill="none" xmlns="http://www.w3.org/2000/svg"><path d="M39.608 20.517c0-4.058-1.161-8.025-3.337-11.399-2.177-3.374-5.27-6.003-8.888-7.556A19.166 19.166 0 0015.94.394C12.1 1.186 8.57 3.14 5.8 6.01 3.03 8.88 1.145 12.534.38 16.514A21.204 21.204 0 001.508 28.37c1.5 3.749 4.038 6.953 7.294 9.207a19.318 19.318 0 0011.003 3.458c2.6 0 5.176-.53 7.579-1.561a19.769 19.769 0 006.425-4.448 20.58 20.58 0 004.293-6.656 21.158 21.158 0 001.507-7.852z" fill="#B7ECB1"/><path d="M8.646 15.965h1.076l-3.193 7.857h-.245l-3.256-7.857h1.09l2.27 5.494 2.258-5.494zm4.226 4.726v2.197c0 .176.058.264.174.264a1.18 1.18 0 00.557-.276v.623c-.17.119-.35.22-.538.304a1.15 1.15 0 01-.426.082c-.42 0-.669-.172-.746-.515-.376.32-.847.498-1.334.503a1.143 1.143 0 01-.866-.356 1.236 1.236 0 01-.345-.893c0-.324.12-.636.338-.87.268-.28.6-.486.963-.6l1.26-.449v-.273c0-.62-.3-.931-.897-.931-.537 0-1.06.288-1.57.863v-1.129c.386-.464.936-.697 1.65-.699.467-.021.926.135 1.289.44.117.106.216.232.29.373.084.143.14.301.167.466.03.292.04.586.034.88v-.004zm-.964 2.083v-1.53l-.659.264c-.26.093-.501.234-.711.418a.768.768 0 00-.204.522c0 .195.073.382.204.522a.693.693 0 00.51.2 1.214 1.214 0 00.87-.4m3.559-6.805h-.983v7.825h.983v-7.825zm7.566 0h1.01v7.823h-1.085v-6.087l-2.323 3.023h-.2l-2.349-3.023v6.087h-1.081v-7.823h1.023l2.51 3.213 2.495-3.213zm5.627 4.727v2.197c0 .175.058.263.174.263a1.17 1.17 0 00.557-.275v.623c-.17.118-.35.22-.538.303-.135.055-.28.082-.424.082-.422 0-.67-.172-.746-.515a2.1 2.1 0 01-1.336.503c-.16.005-.32-.024-.468-.085a1.201 1.201 0 01-.66-.679 1.237 1.237 0 01-.083-.484c0-.325.12-.637.337-.87.269-.28.6-.486.964-.6l1.26-.45v-.273c0-.619-.3-.93-.897-.93-.537 0-1.06.287-1.567.862v-1.128c.385-.465.934-.698 1.648-.7a1.87 1.87 0 011.291.436c.237.22.398.515.457.839.03.293.041.587.035.88h-.004zm-.96 2.079v-1.53l-.66.264c-.26.092-.5.234-.71.417a.767.767 0 00-.209.52.767.767 0 00.199.524.693.693 0 00.51.2c.164-.003.325-.04.474-.11a1.2 1.2 0 00.396-.29m3.614-4.129v1.182l.054-.09c.475-.799.952-1.198 1.428-1.198.37 0 .756.194 1.157.581l-.519.897c-.34-.336-.659-.504-.95-.504a.992.992 0 00-.468.13 1.033 1.033 0 00-.357.34c-.235.32-.358.712-.349 1.114v2.7h-.989v-5.152h.993zm3.839-2.168a.56.56 0 01.417.174.572.572 0 01.173.425.6.6 0 01-.59.605.528.528 0 01-.399-.182.587.587 0 01-.173-.423.6.6 0 01.173-.418.547.547 0 01.4-.181zm-.485 2.167h.989v5.152h-.984l-.005-5.152z" fill="#fff"/></svg>