<svg width="70" height="73" fill="none" xmlns="http://www.w3.org/2000/svg"><path d="M70 36.26c0-7.171-2.053-14.182-5.899-20.145-3.845-5.963-9.312-10.61-15.707-13.355A33.872 33.872 0 0028.172.697c-6.79 1.399-13.026 4.852-17.92 9.923-4.896 5.072-8.229 11.532-9.58 18.566a37.474 37.474 0 001.992 20.95C5.314 56.762 9.8 62.425 15.555 66.41c5.756 3.984 12.523 6.11 19.445 6.11 4.596 0 9.148-.937 13.395-2.759a34.942 34.942 0 0011.355-7.86 36.37 36.37 0 007.587-11.764A37.392 37.392 0 0070 36.26z" fill="#B7ECB1"/><path d="M15.28 28.216h1.9L11.54 42.1h-.433L5.352 28.216h1.925l4.013 9.71 3.99-9.71zm7.47 8.352v3.882c0 .31.102.466.306.466.364-.07.703-.238.985-.487v1.101c-.3.21-.619.389-.95.537a2.034 2.034 0 01-.754.145c-.742 0-1.182-.304-1.318-.911a3.697 3.697 0 01-2.358.89 2.018 2.018 0 01-.827-.152 2.127 2.127 0 01-1.167-1.2 2.184 2.184 0 01-.145-.855 2.258 2.258 0 01.596-1.539 4.03 4.03 0 011.703-1.059l2.225-.794v-.483c0-1.095-.528-1.645-1.584-1.645-.95 0-1.874.508-2.773 1.525v-1.994c.68-.822 1.653-1.234 2.916-1.236a3.3 3.3 0 012.276.777c.207.187.381.41.514.66.146.252.246.531.293.822.052.517.073 1.037.062 1.557v-.007zm-1.704 3.681v-2.704l-1.165.466c-.46.163-.886.414-1.257.738a1.36 1.36 0 000 1.846 1.193 1.193 0 00.903.353c.288-.007.572-.072.836-.194a2.18 2.18 0 00.7-.512m6.292-12.026h-1.738v13.829h1.738v-13.83zm13.368 0h1.785V42.04H40.59V31.283l-4.105 5.344h-.355l-4.15-5.344v10.758h-1.91V28.216h1.808l4.436 5.679 4.409-5.68zm9.947 8.352v3.883c0 .31.102.466.306.466.364-.07.704-.238.985-.487v1.101a5.82 5.82 0 01-.95.537 2.01 2.01 0 01-.75.144c-.745 0-1.185-.303-1.319-.91-.666.565-1.5.88-2.361.889a2.02 2.02 0 01-.827-.151 2.126 2.126 0 01-1.167-1.2 2.186 2.186 0 01-.146-.855 2.26 2.26 0 01.597-1.539 4.03 4.03 0 011.703-1.059l2.225-.794v-.484c0-1.094-.528-1.644-1.584-1.644-.95 0-1.873.508-2.77 1.524v-1.994c.681-.821 1.652-1.233 2.913-1.235a3.3 3.3 0 012.282.77c.42.389.703.91.808 1.482.052.517.073 1.037.061 1.556h-.007zm-1.697 3.675v-2.704l-1.165.466c-.46.163-.886.413-1.258.737a1.356 1.356 0 00-.367.92c-.004.344.122.676.35.927.12.118.262.211.417.272.155.06.32.088.486.08.289-.006.573-.072.837-.193a2.18 2.18 0 00.7-.512m6.387-7.3v2.09l.095-.16c.84-1.411 1.682-2.117 2.525-2.117.654 0 1.336.342 2.044 1.027l-.916 1.585c-.603-.593-1.165-.89-1.68-.89a1.76 1.76 0 00-.827.23 1.83 1.83 0 00-.631.6 3.208 3.208 0 00-.617 1.97v4.772h-1.748v-9.107h1.755zm6.784-3.831a.99.99 0 01.736.307 1.009 1.009 0 01.306.752 1.059 1.059 0 01-.306.752 1.02 1.02 0 01-.736.318.933.933 0 01-.706-.322 1.07 1.07 0 01-.226-1.15c.053-.126.13-.24.227-.335a.962.962 0 01.32-.238.93.93 0 01.385-.084zm-.859 3.83h1.748v9.106h-1.738l-.01-9.106z" fill="#fff"/></svg>