<svg width="55" height="56" viewBox="0 0 55 56" fill="none" xmlns="http://www.w3.org/2000/svg">
<path d="M55 28.4971C55 23.0581 53.3872 17.7413 50.3654 13.2189C47.3437 8.69655 43.0488 5.1718 38.0238 3.0904C32.9988 1.00899 27.4695 0.464394 22.135 1.52549C16.8005 2.58658 11.9005 5.2057 8.05457 9.05165C4.20863 12.8976 1.58951 17.7976 0.528417 23.1321C-0.532676 28.4666 0.0119153 33.9959 2.09332 39.0209C4.17473 44.0458 7.69948 48.3407 12.2218 51.3625C16.7442 54.3842 22.061 55.9971 27.5 55.9971C31.1115 55.9974 34.6876 55.2864 38.0242 53.9045C41.3608 52.5226 44.3925 50.497 46.9462 47.9433C49.4999 45.3896 51.5255 42.3579 52.9074 39.0213C54.2893 35.6847 55.0004 32.1085 55 28.4971Z" fill="#B7ECB1"/>
<path d="M11.711 22.6643H13.2047L8.7717 33.1953H8.43173L3.91309 22.6643H5.42287L8.57628 30.0285L11.711 22.6643Z" fill="#91BD9D"/>
<path d="M17.5817 28.9987V31.9433C17.5817 32.1789 17.662 32.2967 17.8227 32.2967C18.1086 32.2439 18.3755 32.1164 18.5963 31.9272V32.7624C18.3605 32.9209 18.1105 33.0572 17.8494 33.1693C17.6616 33.242 17.4619 33.2792 17.2605 33.2791C16.6751 33.2791 16.3298 33.0489 16.2245 32.5884C15.7008 33.0176 15.0465 33.2555 14.3694 33.263C14.1472 33.2693 13.9261 33.2303 13.7195 33.1484C13.5128 33.0665 13.325 32.9433 13.1675 32.7865C13.0093 32.631 12.8851 32.4444 12.8026 32.2384C12.7201 32.0325 12.6812 31.8117 12.6883 31.59C12.6876 31.155 12.8555 30.7366 13.1568 30.4228C13.5294 30.0483 13.9894 29.7723 14.4952 29.6197L16.2433 29.0174V28.6507C16.2433 27.8209 15.8283 27.4033 14.9985 27.4033C14.2508 27.4033 13.5253 27.7887 12.8222 28.5597V27.0472C13.3576 26.4244 14.1205 26.1121 15.1109 26.1103C15.7589 26.0814 16.3951 26.2909 16.8991 26.6992C17.2305 26.9924 17.4539 27.3883 17.5335 27.8235C17.5746 28.2156 17.5907 28.6099 17.5817 29.0041V28.9987ZM16.2433 31.7907V29.7402L15.3278 30.0936C14.9668 30.2174 14.6319 30.4071 14.34 30.653C14.1601 30.8417 14.0598 31.0924 14.0598 31.353C14.0598 31.6137 14.1601 31.8644 14.34 32.0531C14.4341 32.1432 14.5454 32.2134 14.6673 32.2594C14.7892 32.3054 14.9192 32.3263 15.0494 32.3208C15.2761 32.3161 15.4996 32.2664 15.7069 32.1745C15.9141 32.0826 16.101 31.9503 16.2567 31.7854" fill="#91BD9D"/>
<path d="M21.2022 22.6643H19.8369V33.1525H21.2022V22.6643Z" fill="#91BD9D"/>
<path d="M31.7028 22.6643H33.1081V33.1498H31.5984V24.9906L28.3727 29.0434H28.0969L24.8338 24.9906V33.1498H23.332V22.6643H24.7535L28.2388 26.9715L31.7028 22.6643Z" fill="#91BD9D"/>
<path d="M39.5199 28.9979V31.9425C39.5199 32.178 39.5975 32.2958 39.7581 32.2958C40.0441 32.2431 40.311 32.1156 40.5318 31.9264V32.7616C40.296 32.9201 40.0459 33.0563 39.7849 33.1685C39.5971 33.2414 39.3974 33.2786 39.196 33.2783C38.6106 33.2783 38.2653 33.048 38.16 32.5876C37.6362 33.0167 36.982 33.2547 36.3049 33.2622C36.0831 33.2687 35.8623 33.2298 35.656 33.1479C35.4498 33.0659 35.2625 32.9427 35.1056 32.7857C34.947 32.6304 34.8222 32.4439 34.7393 32.2379C34.6564 32.032 34.617 31.811 34.6238 31.5891C34.6231 31.1541 34.791 30.7358 35.0923 30.422C35.4649 30.0474 35.9249 29.7715 36.4307 29.6189L38.1814 29.0166V28.6499C38.1814 27.82 37.7638 27.4024 36.934 27.4024C36.1862 27.4024 35.4608 27.7879 34.7576 28.5588V27.0464C35.293 26.4236 36.0559 26.1112 37.0464 26.1095C37.6956 26.0772 38.334 26.2849 38.8399 26.693C39.0038 26.8348 39.1415 27.0042 39.2468 27.1936C39.3611 27.3854 39.4382 27.597 39.4744 27.8173C39.5167 28.2093 39.5337 28.6037 39.5252 28.9979H39.5199ZM38.1868 31.7845V29.734L37.2686 30.0874C36.9086 30.2118 36.5747 30.4014 36.2835 30.6468C36.1008 30.8331 35.9972 31.0828 35.9942 31.3436C35.9912 31.6045 36.0891 31.8564 36.2674 32.0469C36.3617 32.1368 36.4731 32.2068 36.5949 32.2528C36.7168 32.2988 36.8467 32.3198 36.9768 32.3146C37.2039 32.3097 37.4277 32.2599 37.6354 32.168C37.8431 32.0761 38.0305 31.9439 38.1868 31.7792" fill="#91BD9D"/>
<path d="M43.2026 26.2437V27.8284L43.2775 27.708C43.9396 26.6372 44.6008 26.1018 45.2611 26.1018C45.7751 26.1018 46.3105 26.3615 46.8673 26.8808L46.1472 28.0827C45.6707 27.633 45.2299 27.4081 44.8248 27.4081C44.5973 27.4132 44.3745 27.4731 44.175 27.5826C43.9756 27.6921 43.8055 27.848 43.6791 28.0372C43.354 28.4664 43.1832 28.9927 43.1946 29.5309V33.1501H41.8213V26.2437H43.2026Z" fill="#91BD9D"/>
<path d="M48.5353 23.3391C48.6424 23.3374 48.7487 23.3571 48.8479 23.3971C48.9472 23.4371 49.0376 23.4966 49.1135 23.572C49.1904 23.6454 49.2513 23.734 49.2923 23.8322C49.3333 23.9303 49.3536 24.0358 49.3518 24.1422C49.3477 24.3539 49.2618 24.5558 49.112 24.7055C48.9623 24.8552 48.7604 24.9411 48.5487 24.9452C48.4441 24.9454 48.3406 24.9239 48.2447 24.8819C48.1489 24.84 48.0628 24.7786 47.9919 24.7016C47.9156 24.6281 47.855 24.54 47.8136 24.4425C47.7722 24.3449 47.7509 24.2401 47.751 24.1341C47.7515 24.0295 47.7731 23.926 47.8145 23.8299C47.8559 23.7337 47.9162 23.6469 47.9919 23.5747C48.0628 23.4977 48.1489 23.4363 48.2447 23.3943C48.3406 23.3524 48.4441 23.3309 48.5487 23.3311L48.5353 23.3391ZM47.8581 26.2435H49.226V33.15H47.8581V26.2435Z" fill="#91BD9D"/>
<path d="M12.0076 22.3962H13.5013L9.06832 32.9272H8.72835L4.20703 22.3962H5.71949L8.8729 29.7604L12.0076 22.3962Z" fill="white"/>
<path d="M17.8767 28.7306V31.6752C17.8767 31.9108 17.957 32.0286 18.1176 32.0286C18.4034 31.9753 18.6701 31.848 18.8912 31.6592V32.4944C18.6554 32.6529 18.4054 32.7891 18.1443 32.9013C17.9556 32.974 17.755 33.0112 17.5527 33.011C16.9692 33.011 16.6239 32.7808 16.5168 32.3204C15.9943 32.7499 15.3407 32.9879 14.6643 32.995C14.4421 33.0014 14.221 32.9625 14.0143 32.8805C13.8076 32.7986 13.6199 32.6754 13.4624 32.5185C13.3042 32.3629 13.18 32.1763 13.0975 31.9704C13.0151 31.7644 12.9761 31.5436 12.9832 31.3219C12.9825 30.8869 13.1504 30.4685 13.4517 30.1548C13.8244 29.7802 14.2843 29.5042 14.7902 29.3517L16.5382 28.7494V28.3826C16.5382 27.5528 16.1233 27.1352 15.2934 27.1352C14.5475 27.1352 13.8211 27.5207 13.1144 28.2916V26.7792C13.6498 26.1563 14.4136 25.844 15.4059 25.8422C16.0539 25.8133 16.69 26.0228 17.194 26.4312C17.357 26.5731 17.4938 26.7425 17.5983 26.9317C17.7133 27.1235 17.7913 27.335 17.8285 27.5555C17.8695 27.9476 17.8856 28.3419 17.8767 28.736V28.7306ZM16.5382 31.5227V29.4721L15.6227 29.8255C15.2617 29.9494 14.9268 30.1391 14.6349 30.385C14.4538 30.573 14.3527 30.8239 14.3527 31.085C14.3527 31.346 14.4538 31.597 14.6349 31.785C14.729 31.8751 14.8403 31.9453 14.9622 31.9913C15.0842 32.0373 15.2141 32.0582 15.3443 32.0527C15.5709 32.0478 15.7944 31.9979 16.0016 31.906C16.2088 31.8141 16.3958 31.682 16.5516 31.5173" fill="white"/>
<path d="M21.4941 22.3962H20.1289V32.8844H21.4941V22.3962Z" fill="white"/>
<path d="M31.9977 22.3962H33.4004V32.8817H31.8933V24.7225L28.6676 28.7753H28.3892L25.1287 24.7225V32.8817H23.627V22.3962H25.0484L28.5337 26.7034L31.9977 22.3962Z" fill="white"/>
<path d="M39.8122 28.7292V31.6738C39.8122 31.9094 39.8925 32.0272 40.0531 32.0272C40.3391 31.9744 40.606 31.847 40.8268 31.6578V32.493C40.591 32.6515 40.3409 32.7877 40.0799 32.8999C39.8921 32.9725 39.6924 33.0097 39.491 33.0096C38.9056 33.0096 38.5603 32.7794 38.455 32.319C37.9313 32.7481 37.277 32.986 36.5999 32.9935C36.3777 32.9998 36.1566 32.9608 35.9499 32.8789C35.7433 32.797 35.5555 32.6739 35.398 32.5171C35.2398 32.3615 35.1155 32.1749 35.0331 31.9689C34.9506 31.763 34.9117 31.5422 34.9188 31.3205C34.9181 30.8855 35.086 30.4671 35.3873 30.1533C35.7599 29.7788 36.2199 29.5028 36.7257 29.3503L38.4738 28.748V28.3812C38.4738 27.5514 38.0588 27.1338 37.229 27.1338C36.483 27.1338 35.7576 27.5192 35.0526 28.2902V26.7777C35.588 26.1549 36.3509 25.8426 37.3414 25.8408C37.9906 25.8091 38.6288 26.0167 39.1349 26.4244C39.4638 26.7196 39.6867 27.1146 39.7694 27.5487C39.8104 27.9408 39.8265 28.3351 39.8176 28.7292H39.8122ZM38.4791 31.5159V29.4654L37.5636 29.8187C37.2026 29.9426 36.8677 30.1323 36.5758 30.3782C36.3929 30.5645 36.2894 30.8144 36.2869 31.0755C36.2844 31.3366 36.3831 31.5885 36.5624 31.7782C36.6565 31.8684 36.7679 31.9385 36.8898 31.9845C37.0117 32.0306 37.1416 32.0514 37.2718 32.0459C37.4985 32.041 37.7219 31.9911 37.9291 31.8992C38.1364 31.8073 38.3233 31.6752 38.4791 31.5105" fill="white"/>
<path d="M43.4977 25.9761V27.5608L43.5727 27.4404C44.233 26.3696 44.8942 25.8342 45.5563 25.8342C46.0703 25.8342 46.6056 26.0939 47.1624 26.6132L46.4424 27.8151C45.9685 27.3654 45.5269 27.1406 45.1226 27.1406C44.8952 27.1457 44.6723 27.2055 44.4729 27.315C44.2734 27.4245 44.1033 27.5805 43.9769 27.7696C43.6507 28.1982 43.4798 28.7249 43.4924 29.2634V32.8826H42.1191V25.9761H43.4977Z" fill="white"/>
<path d="M48.8283 23.0721C48.9353 23.0704 49.0416 23.0902 49.1409 23.1302C49.2402 23.1702 49.3305 23.2296 49.4065 23.305C49.4842 23.3779 49.5459 23.4664 49.5874 23.5646C49.6289 23.6628 49.6493 23.7686 49.6474 23.8752C49.6483 23.9817 49.6274 24.0872 49.586 24.1852C49.5446 24.2833 49.4835 24.3718 49.4065 24.4454C49.3312 24.5222 49.2412 24.5832 49.1418 24.6245C49.0425 24.6659 48.9359 24.6869 48.8283 24.6863C48.7241 24.6861 48.6211 24.6644 48.5257 24.6225C48.4303 24.5806 48.3447 24.5193 48.2741 24.4427C48.1978 24.3692 48.1372 24.281 48.0958 24.1835C48.0544 24.086 48.0331 23.9811 48.0332 23.8752C48.0337 23.7705 48.0553 23.6671 48.0967 23.5709C48.1381 23.4748 48.1984 23.388 48.2741 23.3157C48.3447 23.2391 48.4303 23.1779 48.5257 23.1359C48.6211 23.094 48.7241 23.0723 48.8283 23.0721ZM48.1537 25.9766H49.5269V32.883H48.1617L48.1537 25.9766Z" fill="white"/>
</svg>
