<svg width="78" height="77" viewBox="0 0 78 77" fill="none" xmlns="http://www.w3.org/2000/svg">
<path d="M77.0938 38.5C77.0938 30.8854 74.8358 23.4419 70.6053 17.1106C66.3749 10.7793 60.362 5.84463 53.3271 2.93066C46.2921 0.0166815 38.551 -0.745747 31.0828 0.739784C23.6145 2.22532 16.7545 5.89208 11.3702 11.2764C5.98583 16.6607 2.31906 23.5208 0.833534 30.989C-0.651997 38.4573 0.110431 46.1984 3.0244 53.2333C5.93838 60.2683 10.873 66.2812 17.2043 70.5116C23.5356 74.742 30.9792 77 38.5938 77C43.6498 77.0005 48.6564 76.005 53.3276 74.0704C57.9989 72.1357 62.2433 69.2999 65.8185 65.7247C69.3936 62.1496 72.2295 57.9052 74.1641 53.2339C76.0987 48.5627 77.0942 43.556 77.0938 38.5Z" fill="#B7ECB1"/>
<path d="M16.4902 30.3337H18.5814L12.3753 45.0771H11.8993L5.57324 30.3337H7.68693L12.1017 40.6436L16.4902 30.3337Z" fill="#91BD9D"/>
<path d="M24.7084 39.2013V43.3237C24.7084 43.6535 24.8208 43.8184 25.0457 43.8184C25.446 43.7445 25.8196 43.5661 26.1288 43.3012V44.4705C25.7986 44.6924 25.4486 44.8831 25.0831 45.0402C24.8202 45.1419 24.5406 45.194 24.2587 45.1938C23.4392 45.1938 22.9557 44.8715 22.8083 44.2269C22.075 44.8277 21.159 45.1608 20.2111 45.1713C19.9001 45.1801 19.5905 45.1255 19.3012 45.0108C19.0119 44.8961 18.749 44.7238 18.5284 44.5042C18.307 44.2865 18.1331 44.0252 18.0176 43.7369C17.9021 43.4486 17.8477 43.1394 17.8576 42.829C17.8566 42.22 18.0917 41.6343 18.5134 41.195C19.0352 40.6707 19.6791 40.2843 20.3873 40.0707L22.8345 39.2275V38.7141C22.8345 37.5523 22.2536 36.9676 21.0919 36.9676C20.045 36.9676 19.0294 37.5073 18.045 38.5866V36.4692C18.7945 35.5972 19.8626 35.16 21.2493 35.1575C22.1565 35.117 23.0471 35.4103 23.7527 35.982C24.2167 36.3924 24.5295 36.9467 24.6409 37.556C24.6984 38.1049 24.7209 38.657 24.7084 39.2088V39.2013ZM22.8345 43.1101V40.2394L21.5528 40.7341C21.0474 40.9075 20.5785 41.1731 20.1699 41.5173C19.9181 41.7815 19.7777 42.1324 19.7777 42.4973C19.7777 42.8623 19.9181 43.2132 20.1699 43.4774C20.3016 43.6036 20.4575 43.7018 20.6282 43.7662C20.7989 43.8306 20.9808 43.8598 21.1631 43.8521C21.4804 43.8457 21.7934 43.776 22.0835 43.6474C22.3737 43.5187 22.6354 43.3335 22.8533 43.1026" fill="#91BD9D"/>
<path d="M29.7765 30.3337H27.8652V45.0172H29.7765V30.3337Z" fill="#91BD9D"/>
<path d="M44.4778 30.3337H46.4453V45.0134H44.3317V33.5905L39.8157 39.2645H39.4297L34.8612 33.5905V45.0134H32.7588V30.3337H34.7488L39.6283 36.3638L44.4778 30.3337Z" fill="#91BD9D"/>
<path d="M55.4219 39.2014V43.3239C55.4219 43.6537 55.5306 43.8186 55.7555 43.8186C56.1558 43.7447 56.5294 43.5662 56.8385 43.3014V44.4707C56.5084 44.6925 56.1584 44.8832 55.7929 45.0403C55.53 45.1423 55.2504 45.1945 54.9684 45.194C54.149 45.194 53.6655 44.8717 53.5181 44.2271C52.7849 44.8278 51.8688 45.1609 50.921 45.1715C50.6104 45.1806 50.3013 45.1262 50.0126 45.0114C49.7238 44.8967 49.4616 44.7242 49.242 44.5044C49.0199 44.2869 48.8453 44.0258 48.7292 43.7375C48.6131 43.4491 48.558 43.1399 48.5674 42.8292C48.5664 42.2202 48.8015 41.6345 49.2233 41.1952C49.745 40.6708 50.3889 40.2844 51.0971 40.0709L53.5481 39.2276V38.7142C53.5481 37.5524 52.9635 36.9678 51.8017 36.9678C50.7548 36.9678 49.7392 37.5074 48.7548 38.5868V36.4693C49.5044 35.5974 50.5724 35.1601 51.9591 35.1576C52.868 35.1125 53.7617 35.4033 54.47 35.9746C54.6994 36.1731 54.8922 36.4103 55.0397 36.6755C55.1996 36.944 55.3076 37.2402 55.3582 37.5487C55.4175 38.0975 55.4413 38.6495 55.4294 39.2014H55.4219ZM53.5556 43.1027V40.232L52.2701 40.7267C51.7662 40.9009 51.2987 41.1664 50.891 41.51C50.6353 41.7708 50.4902 42.1203 50.486 42.4855C50.4818 42.8507 50.6189 43.2034 50.8685 43.47C51.0005 43.5959 51.1564 43.6939 51.327 43.7583C51.4976 43.8226 51.6794 43.8521 51.8616 43.8448C52.1795 43.838 52.4929 43.7682 52.7836 43.6396C53.0744 43.5109 53.3368 43.3259 53.5556 43.0953" fill="#91BD9D"/>
<path d="M60.5774 35.3449V37.5635L60.6823 37.3949C61.6092 35.8958 62.5349 35.1462 63.4593 35.1462C64.1789 35.1462 64.9284 35.5098 65.7079 36.2368L64.6998 37.9195C64.0327 37.2899 63.4156 36.9751 62.8484 36.9751C62.53 36.9823 62.218 37.066 61.9387 37.2193C61.6595 37.3726 61.4214 37.591 61.2444 37.8558C60.7893 38.4566 60.5503 39.1935 60.5661 39.947V45.0139H58.6436V35.3449H60.5774Z" fill="#91BD9D"/>
<path d="M68.0444 31.2778C68.1942 31.2755 68.343 31.3031 68.482 31.3591C68.6211 31.4151 68.7475 31.4983 68.8539 31.6039C68.9615 31.7068 69.0467 31.8308 69.1041 31.9681C69.1615 32.1055 69.1899 32.2533 69.1874 32.4022C69.1817 32.6985 69.0614 32.9812 68.8517 33.1908C68.6421 33.4004 68.3595 33.5207 68.0631 33.5265C67.9166 33.5267 67.7717 33.4966 67.6375 33.4379C67.5033 33.3791 67.3828 33.2932 67.2836 33.1854C67.1768 33.0825 67.0919 32.9591 67.0339 32.8226C66.9759 32.686 66.9461 32.5392 66.9463 32.3909C66.947 32.2444 66.9773 32.0995 67.0352 31.9649C67.0932 31.8304 67.1776 31.7088 67.2836 31.6076C67.3828 31.4999 67.5033 31.4139 67.6375 31.3552C67.7717 31.2965 67.9166 31.2663 68.0631 31.2666L68.0444 31.2778ZM67.0962 35.3441H69.0113V45.0131H67.0962V35.3441Z" fill="#91BD9D"/>
<path d="M16.9032 29.9592H18.9944L12.7882 44.7026H12.3123L5.98242 29.9592H8.09987L12.5147 40.2691L16.9032 29.9592Z" fill="white"/>
<path d="M25.1204 38.8267V42.9492C25.1204 43.279 25.2329 43.4439 25.4577 43.4439C25.8578 43.3693 26.2313 43.191 26.5408 42.9267V44.096C26.2107 44.3179 25.8606 44.5086 25.4952 44.6656C25.2309 44.7674 24.9501 44.8195 24.667 44.8193C23.85 44.8193 23.3665 44.497 23.2166 43.8524C22.4851 44.4537 21.5701 44.7869 20.6232 44.7968C20.3121 44.8058 20.0025 44.7513 19.7132 44.6366C19.4239 44.5219 19.161 44.3494 18.9405 44.1297C18.7191 43.912 18.5452 43.6507 18.4297 43.3624C18.3142 43.074 18.2598 42.7649 18.2697 42.4545C18.2687 41.8455 18.5038 41.2598 18.9255 40.8205C19.4473 40.2962 20.0912 39.9098 20.7994 39.6962L23.2466 38.853V38.3395C23.2466 37.1778 22.6657 36.5931 21.5039 36.5931C20.4596 36.5931 19.4427 37.1328 18.4533 38.2121V36.0947C19.2029 35.2227 20.2722 34.7855 21.6613 34.783C22.5686 34.7425 23.4592 35.0358 24.1648 35.6075C24.393 35.8062 24.5845 36.0434 24.7307 36.3083C24.8917 36.5767 25.001 36.8729 25.053 37.1815C25.1104 37.7304 25.133 38.2825 25.1204 38.8342V38.8267ZM23.2466 42.7356V39.8649L21.9649 40.3596C21.4595 40.533 20.9906 40.7985 20.582 41.1428C20.3285 41.4061 20.1869 41.7574 20.1869 42.1228C20.1869 42.4883 20.3285 42.8396 20.582 43.1029C20.7137 43.2291 20.8696 43.3273 21.0403 43.3917C21.211 43.4561 21.3929 43.4853 21.5751 43.4776C21.8925 43.4707 22.2052 43.4009 22.4954 43.2723C22.7855 43.1436 23.0472 42.9586 23.2653 42.7281" fill="white"/>
<path d="M30.1838 29.9592H28.2725V44.6427H30.1838V29.9592Z" fill="white"/>
<path d="M44.8908 29.9592H46.8546V44.6389H44.7447V33.216L40.2287 38.89H39.839L35.2743 33.216V44.6389H33.1719V29.9592H35.1619L40.0413 35.9893L44.8908 29.9592Z" fill="white"/>
<path d="M55.8295 38.826V42.9485C55.8295 43.2783 55.942 43.4432 56.1668 43.4432C56.5671 43.3693 56.9408 43.1909 57.2499 42.926V44.0953C56.9198 44.3172 56.5697 44.5079 56.2043 44.6649C55.9413 44.7666 55.6618 44.8187 55.3798 44.8186C54.5603 44.8186 54.0768 44.4963 53.9294 43.8517C53.1962 44.4524 52.2802 44.7855 51.3323 44.7961C51.0212 44.8049 50.7116 44.7503 50.4223 44.6356C50.133 44.5209 49.8701 44.3485 49.6495 44.129C49.4281 43.9112 49.2542 43.65 49.1387 43.3616C49.0232 43.0733 48.9688 42.7642 48.9787 42.4538C48.9777 41.8448 49.2128 41.2591 49.6345 40.8198C50.1563 40.2954 50.8002 39.9091 51.5084 39.6955L53.9557 38.8523V38.3388C53.9557 37.177 53.3748 36.5924 52.213 36.5924C51.1686 36.5924 50.153 37.1321 49.1661 38.2114V36.094C49.9156 35.222 50.9837 34.7848 52.3704 34.7823C53.2792 34.7378 54.1727 35.0285 54.8813 35.5993C55.3418 36.0126 55.6538 36.5655 55.7696 37.1733C55.827 37.7222 55.8495 38.2742 55.837 38.826H55.8295ZM53.9632 42.7274V39.8566L52.6814 40.3513C52.176 40.5248 51.7072 40.7903 51.2985 41.1346C51.0425 41.3954 50.8975 41.7454 50.894 42.1108C50.8905 42.4763 51.0288 42.829 51.2798 43.0946C51.4115 43.2208 51.5674 43.3191 51.7381 43.3835C51.9087 43.4479 52.0907 43.4771 52.2729 43.4694C52.5903 43.4625 52.903 43.3927 53.1932 43.2641C53.4833 43.1354 53.745 42.9504 53.9632 42.7199" fill="white"/>
<path d="M60.9906 34.9696V37.1883L61.0956 37.0196C62.02 35.5205 62.9457 34.771 63.8726 34.771C64.5922 34.771 65.3417 35.1345 66.1213 35.8616L65.1131 37.5443C64.4498 36.9147 63.8314 36.5999 63.2655 36.5999C62.947 36.607 62.635 36.6908 62.3558 36.8441C62.0766 36.9974 61.8384 37.2157 61.6615 37.4806C61.2047 38.0805 60.9655 38.818 60.9831 39.5718V44.6387H59.0605V34.9696H60.9906Z" fill="white"/>
<path d="M68.4519 30.9039C68.6018 30.9016 68.7506 30.9292 68.8896 30.9852C69.0286 31.0412 69.1551 31.1244 69.2614 31.23C69.3703 31.3321 69.4566 31.4559 69.5147 31.5934C69.5728 31.7309 69.6014 31.879 69.5987 32.0283C69.6 32.1773 69.5708 32.325 69.5128 32.4623C69.4548 32.5996 69.3692 32.7236 69.2614 32.8265C69.156 32.9341 69.03 33.0194 68.8909 33.0773C68.7519 33.1353 68.6026 33.1647 68.4519 33.1638C68.3061 33.1636 68.1619 33.1331 68.0284 33.0744C67.8949 33.0157 67.7749 32.9301 67.6762 32.8228C67.5694 32.7198 67.4844 32.5964 67.4265 32.4599C67.3685 32.3234 67.3387 32.1766 67.3389 32.0283C67.3396 31.8817 67.3698 31.7369 67.4278 31.6023C67.4857 31.4677 67.5702 31.3462 67.6762 31.245C67.7749 31.1377 67.8949 31.052 68.0284 30.9933C68.1619 30.9346 68.3061 30.9042 68.4519 30.9039ZM67.5075 34.9702H69.4301V44.6392H67.5188L67.5075 34.9702Z" fill="white"/>
</svg>
